<?xml version="1.0" standalone="no"?>
<!DOCTYPE svg PUBLIC "-//W3C//DTD SVG 20010904//EN"
 "http://www.w3.org/TR/2001/REC-SVG-20010904/DTD/svg10.dtd">
<svg version="1.0" xmlns="http://www.w3.org/2000/svg"
 width="192.000000pt" height="192.000000pt" viewBox="0 0 192.000000 192.000000"
 preserveAspectRatio="xMidYMid meet">
<metadata>
Created by potrace 1.14, written by Peter Selinger 2001-2017
</metadata>
<g transform="translate(0.000000,192.000000) scale(0.100000,-0.100000)"
fill="#000000" stroke="none">
<path d="M457 1913 c-14 -13 -6 -35 23 -65 31 -31 38 -48 19 -48 -6 0 -43 -22
-83 -50 -138 -95 -254 -231 -324 -380 -67 -144 -87 -240 -87 -420 1 -107 6
-153 24 -224 13 -50 27 -97 31 -105 67 -138 88 -176 126 -226 136 -183 338
-319 542 -366 26 -6 56 -13 67 -16 51 -13 264 -11 330 2 127 26 156 36 266 89
182 89 355 267 438 451 33 73 38 86 51 126 11 37 13 46 29 136 12 60 11 242 0
293 -4 19 -10 49 -13 65 -3 17 -14 55 -25 85 -69 198 -181 352 -346 475 -80
60 -240 138 -310 151 -5 1 -39 9 -75 18 -137 33 -372 12 -523 -48 -35 -14 -67
-26 -72 -26 -13 0 -34 34 -35 56 0 27 -36 45 -53 27z"/>
</g>
</svg>
